<?xml version="1.0" encoding="UTF-8"?> <svg xmlns="http://www.w3.org/2000/svg" viewBox="0 0 100 100" fill-rule="evenodd"><path d="m62.5 16.668v-4.168c0-2.3008 1.8672-4.1641 4.168-4.1641s4.168 1.8633 4.168 4.1641v4.168c9.2031 0 16.664 7.4609 16.664 16.668v41.664c0 9.2031-7.4609 16.668-16.664 16.668h-41.668c-9.2031 0-16.668-7.4648-16.668-16.668v-41.664c0-9.207 7.4648-16.668 16.668-16.668v-4.168c0-2.3008 1.8672-4.1641 4.168-4.1641 2.2969 0 4.1641 1.8633 4.1641 4.1641v4.168zm16.668 33.332h-58.332v25c0 4.6016 3.7266 8.3359 8.332 8.3359h41.668c4.5977 0 8.332-3.7344 8.332-8.3359zm-8.332-25v4.168c0 2.3008-1.8672 4.168-4.168 4.168s-4.168-1.8672-4.168-4.168v-4.168h-25v4.168c0 2.3008-1.8672 4.168-4.1641 4.168-2.3008 0-4.168-1.8672-4.168-4.168v-4.168c-4.6055 0-8.332 3.7305-8.332 8.3359v8.332h58.332v-8.332c0-4.6055-3.7344-8.3359-8.332-8.3359z" fill-rule="evenodd" fill="#ff8515"></path></svg> 