<?xml version="1.0" encoding="UTF-8"?> <svg xmlns="http://www.w3.org/2000/svg" width="611" height="157" viewBox="0 0 611 157" fill="none"><path d="M277.173 58.9467L256.9 28.7406L276.196 0.977019H295.817L273.509 31.1017V25.891L296.713 58.9467H277.173ZM242 58.9467V0.977019H258.284V58.9467H242Z" fill="black"></path><path d="M299.937 44.8614V31.5088H329.98V44.8614H299.937Z" fill="black"></path><path d="M351.167 58.9467V0.977019H367.451V58.9467H351.167ZM333.825 14.8181V0.977019H384.874V14.8181H333.825Z" fill="black"></path><path d="M407.442 35.824V24.5883H417.293C419.519 24.5883 421.201 24.0455 422.341 22.9599C423.535 21.8743 424.132 20.4359 424.132 18.6447C424.132 16.8535 423.535 15.4152 422.341 14.3296C421.201 13.244 419.519 12.7012 417.293 12.7012H407.442V0.977019H419.899C423.915 0.977019 427.443 1.70978 430.483 3.1753C433.523 4.64083 435.911 6.67628 437.648 9.28166C439.385 11.887 440.253 14.9267 440.253 18.4005C440.253 21.8743 439.357 24.9139 437.566 27.5193C435.829 30.1247 433.387 32.1601 430.239 33.6257C427.09 35.0912 423.372 35.824 419.084 35.824H407.442ZM394.252 58.9467V0.977019H410.535V58.9467H394.252ZM425.516 58.9467L409.721 34.1956L424.377 31.0203L443.998 58.9467H425.516Z" fill="black"></path><path d="M475.522 59.9237C470.42 59.9237 465.969 58.8924 462.169 56.8298C458.37 54.713 455.411 51.8091 453.295 48.1181C451.178 44.4271 450.119 40.1934 450.119 35.4169V0.977019H466.403V36.8824C466.403 38.7279 466.81 40.302 467.624 41.6046C468.438 42.9073 469.524 43.9115 470.881 44.6171C472.292 45.2685 473.839 45.5941 475.522 45.5941C477.259 45.5941 478.778 45.2685 480.081 44.6171C481.438 43.9115 482.497 42.9345 483.256 41.6861C484.016 40.3834 484.396 38.8093 484.396 36.9638V0.977019H500.761V35.4983C500.761 40.2748 499.703 44.5086 497.586 48.1995C495.523 51.8362 492.592 54.713 488.793 56.8298C485.048 58.8924 480.624 59.9237 475.522 59.9237Z" fill="black"></path><path d="M530.646 59.9237C525.707 59.9237 521.392 59.2181 517.701 57.8069C514.064 56.3413 510.699 54.0345 507.605 50.8863L517.782 40.7091C519.899 42.7174 522.124 44.2643 524.458 45.3499C526.792 46.3812 529.289 46.8968 531.949 46.8968C534.174 46.8968 535.857 46.5712 536.997 45.9198C538.137 45.2142 538.707 44.2643 538.707 43.0702C538.707 41.876 538.218 40.899 537.241 40.1391C536.264 39.3249 534.961 38.6193 533.333 38.0223C531.759 37.3709 529.995 36.7196 528.041 36.0682C526.141 35.4169 524.241 34.6298 522.342 33.7071C520.442 32.7844 518.678 31.6716 517.049 30.369C515.475 29.012 514.2 27.3565 513.223 25.4024C512.246 23.3941 511.757 20.9516 511.757 18.0748C511.757 14.3296 512.653 11.1 514.444 8.38606C516.235 5.67213 518.759 3.60954 522.016 2.19829C525.273 0.732763 529.099 0 533.496 0C537.838 0 541.855 0.705624 545.546 2.11687C549.291 3.47384 552.385 5.42787 554.827 7.97897L544.569 18.1562C542.778 16.4193 540.986 15.1438 539.195 14.3296C537.404 13.4611 535.45 13.0269 533.333 13.0269C531.65 13.0269 530.293 13.2983 529.262 13.8411C528.285 14.3839 527.797 15.198 527.797 16.2836C527.797 17.4235 528.285 18.3734 529.262 19.1333C530.239 19.8389 531.515 20.4902 533.089 21.0873C534.717 21.6844 536.481 22.3086 538.381 22.9599C540.335 23.6112 542.262 24.3983 544.162 25.321C546.061 26.1895 547.798 27.3293 549.372 28.7406C551.001 30.0976 552.303 31.8073 553.28 33.8699C554.257 35.9325 554.746 38.4293 554.746 41.3604C554.746 47.2768 552.629 51.8633 548.395 55.1201C544.216 58.3225 538.3 59.9237 530.646 59.9237Z" fill="black"></path><path d="M576.803 58.9467V0.977019H593.087V58.9467H576.803ZM559.461 14.8181V0.977019H610.51V14.8181H559.461Z" fill="black"></path><path d="M242 155.171V109.89H254.719V155.171H242ZM252.366 155.171V144.359H273.544V155.171H252.366Z" fill="black"></path><path d="M287.262 155.171V109.89H299.981V155.171H287.262ZM273.716 120.702V109.89H313.591V120.702H273.716Z" fill="black"></path><path d="M320.28 155.171V109.89H332.999V155.171H320.28ZM330.646 155.171V144.359H351.823V155.171H330.646Z" fill="black"></path><path d="M393.806 155.934C390.329 155.934 387.086 155.361 384.075 154.217C381.108 153.029 378.5 151.376 376.253 149.256C374.006 147.136 372.247 144.656 370.975 141.815C369.745 138.932 369.13 135.816 369.13 132.467C369.13 129.075 369.745 125.959 370.975 123.118C372.247 120.278 373.985 117.819 376.19 115.741C378.437 113.664 381.044 112.053 384.012 110.908C386.98 109.721 390.202 109.127 393.678 109.127C397.197 109.127 400.42 109.678 403.345 110.781C406.27 111.883 408.814 113.409 410.976 115.36L402.518 123.881C401.501 122.779 400.25 121.91 398.766 121.274C397.325 120.638 395.629 120.32 393.678 120.32C391.983 120.32 390.414 120.596 388.972 121.147C387.573 121.698 386.365 122.504 385.347 123.563C384.33 124.623 383.524 125.916 382.931 127.443C382.38 128.927 382.104 130.601 382.104 132.467C382.104 134.375 382.38 136.092 382.931 137.618C383.524 139.102 384.33 140.374 385.347 141.434C386.365 142.494 387.573 143.321 388.972 143.914C390.414 144.465 391.983 144.741 393.678 144.741C395.586 144.741 397.282 144.444 398.766 143.85C400.292 143.257 401.607 142.388 402.709 141.243L411.231 149.765C408.984 151.715 406.461 153.241 403.663 154.344C400.865 155.404 397.579 155.934 393.806 155.934Z" fill="black"></path><path d="M413.058 155.171L430.293 109.89H443.266L460.31 155.171H447.082L434.426 116.695H439.005L426.032 155.171H413.058ZM424.251 147.539V137.618H449.562V147.539H424.251Z" fill="black"></path><path d="M476.15 137.109V128.333H483.845C485.583 128.333 486.897 127.909 487.788 127.061C488.721 126.213 489.187 125.09 489.187 123.691C489.187 122.292 488.721 121.168 487.788 120.32C486.897 119.472 485.583 119.048 483.845 119.048H476.15V109.89H485.88C489.017 109.89 491.773 110.463 494.147 111.607C496.522 112.752 498.387 114.342 499.744 116.377C501.101 118.412 501.779 120.786 501.779 123.5C501.779 126.213 501.079 128.588 499.68 130.623C498.323 132.658 496.416 134.248 493.957 135.392C491.498 136.537 488.593 137.109 485.244 137.109H476.15ZM465.847 155.171V109.89H478.566V155.171H465.847ZM490.268 155.171L477.93 135.837L489.378 133.357L504.704 155.171H490.268Z" fill="black"></path><path d="M532.185 155.934C528.666 155.934 525.401 155.361 522.391 154.217C519.423 153.029 516.816 151.376 514.569 149.256C512.364 147.136 510.647 144.656 509.417 141.815C508.188 138.975 507.573 135.88 507.573 132.53C507.573 129.139 508.209 126.022 509.481 123.182C510.795 120.341 512.597 117.882 514.887 115.805C517.218 113.685 519.911 112.053 522.963 110.908C526.016 109.721 529.28 109.127 532.757 109.127C536.954 109.127 540.706 109.848 544.013 111.289C547.363 112.731 550.076 114.681 552.154 117.14L543.568 125.726C542 123.903 540.367 122.546 538.671 121.656C536.976 120.765 534.94 120.32 532.566 120.32C530.319 120.32 528.284 120.829 526.461 121.846C524.638 122.821 523.175 124.221 522.073 126.044C521.013 127.867 520.483 130.008 520.483 132.467C520.483 134.926 520.971 137.088 521.946 138.954C522.963 140.777 524.362 142.197 526.143 143.215C527.924 144.232 530.001 144.741 532.375 144.741C534.665 144.741 536.594 144.296 538.163 143.405C539.731 142.515 540.918 141.243 541.724 139.59C542.572 137.936 542.996 135.986 542.996 133.739L551.709 139.272L530.658 138.636V128.46H555.779V130.368C555.779 135.795 554.782 140.416 552.79 144.232C550.839 148.048 548.084 150.952 544.522 152.945C541.003 154.937 536.891 155.934 532.185 155.934Z" fill="black"></path><path d="M585.579 156.061C582.018 156.061 578.732 155.467 575.722 154.28C572.754 153.093 570.147 151.44 567.9 149.32C565.695 147.2 563.978 144.698 562.748 141.815C561.519 138.932 560.904 135.816 560.904 132.467C560.904 129.075 561.498 125.959 562.685 123.118C563.914 120.278 565.631 117.797 567.836 115.678C570.041 113.558 572.627 111.925 575.595 110.781C578.605 109.594 581.891 109 585.452 109C589.013 109 592.278 109.594 595.246 110.781C598.256 111.925 600.863 113.558 603.068 115.678C605.273 117.797 606.969 120.299 608.156 123.182C609.385 126.022 610 129.139 610 132.53C610 135.88 609.385 138.996 608.156 141.879C606.969 144.72 605.273 147.221 603.068 149.383C600.863 151.503 598.277 153.157 595.309 154.344C592.342 155.489 589.098 156.061 585.579 156.061ZM585.452 144.868C587.826 144.868 589.883 144.359 591.621 143.342C593.359 142.324 594.695 140.883 595.627 139.017C596.56 137.152 597.026 134.968 597.026 132.467C597.026 130.601 596.751 128.927 596.2 127.443C595.691 125.916 594.928 124.623 593.91 123.563C592.893 122.461 591.663 121.634 590.222 121.083C588.823 120.49 587.233 120.193 585.452 120.193C583.078 120.193 581.022 120.702 579.283 121.719C577.545 122.694 576.209 124.115 575.277 125.98C574.344 127.803 573.878 129.965 573.878 132.467C573.878 134.375 574.132 136.092 574.641 137.618C575.192 139.144 575.976 140.459 576.994 141.561C578.011 142.621 579.22 143.448 580.619 144.041C582.06 144.592 583.671 144.868 585.452 144.868Z" fill="black"></path><path d="M102.425 0.122803C113.52 -0.634835 126.043 2.20111 136.131 6.53979C150.961 12.8975 163.543 23.561 172.244 37.1492C173.671 39.4106 175.393 41.8217 176.331 44.3337C176.823 45.6516 177.062 47.3905 176.266 48.656C174.168 51.9836 120.775 71.309 113.708 73.7214C104.884 76.7489 95.9808 79.5425 87.0088 82.0984C76.9812 84.9366 66.8581 87.4271 56.6592 89.5671C52.0439 90.5205 29.3184 95.4163 26.0977 93.0613C24.5478 91.9273 24.3545 89.101 24.2461 87.3376C22.8887 65.1881 29.5057 43.6922 44.4121 27.0369C59.7863 9.85856 79.617 1.33908 102.425 0.122803ZM102.182 40.5173C101.148 41.53 100.092 42.5219 99.1562 43.6277C103.179 49.099 108.042 54.1996 112.475 59.3621C106.777 61.8783 100.64 64.4001 94.6748 66.1794C90.2198 64.1242 85.7841 62.0263 81.3691 59.8855L78.7754 62.2136C80.5915 65.0594 86.325 75.155 89.2598 76.0505C90.535 76.4393 92.222 76.1697 93.4912 75.8914C97.8784 74.9278 102.308 73.1188 106.562 71.6707C113.837 69.1944 121.166 66.7662 128.358 64.0613C139.484 60.02 150.73 56.1108 161.636 51.5046C164.248 50.4015 167.108 49.6 169.594 48.24C170.367 47.8169 171.438 47.1532 171.794 46.2957C172.039 45.7043 171.952 45.1511 171.62 44.6121C170.514 42.8158 166.54 41.9413 164.529 41.7126C163.754 41.6245 162.844 41.5429 162.071 41.6921C159.412 42.2043 156.641 43.5732 154.104 44.5574C147.294 47.1998 140.415 50.2925 133.45 52.4705C126.358 49.7744 119.288 47.0193 112.242 44.2039C109.128 42.9797 105.454 41.0725 102.182 40.5173Z" fill="#F0770D"></path><path d="M215.036 35.2979C215.625 35.3308 215.513 35.2282 215.986 35.6885C216.08 36.8359 215.689 37.5501 214.928 38.3647C212.822 40.6165 209.706 42.1023 207.064 43.6171C202.207 46.4195 197.324 49.1784 192.417 51.8934C189.27 53.6221 185.49 55.2589 182.723 57.5225C182.04 58.0811 181.537 58.8615 181.045 59.5854C181.123 61.655 181.653 63.8461 181.98 65.8979C175.703 69.8106 168.915 73.1559 162.288 76.4307C130.251 92.3027 96.18 103.687 61.0366 110.263C51.4273 112.084 41.386 113.837 31.6223 114.525C30.6694 112.882 29.8847 111.252 29.1642 109.494C21.3786 109.413 13.9924 107.292 8.22405 101.85C4.18147 98.0352 1.02815 92.3588 0.921003 86.7082C0.8109 80.9221 3.70942 76.286 7.62292 72.2847C8.75136 71.2655 9.9241 70.3447 11.2373 69.5735C13.706 68.1245 20.8947 65.0108 23.6106 65.9055C24.0312 66.0443 24.0383 66.2358 24.2463 66.5881C23.487 68.1932 19.7886 68.7163 18.1518 69.5225C13.9789 71.5785 9.91566 74.9909 8.50627 79.5916C7.3639 83.3203 7.87644 87.4911 9.66087 90.9288C11.8789 95.2021 15.83 97.8585 20.3628 99.2227C31.2781 102.508 46.6499 98.7233 57.5601 96.3411C101.658 86.7132 143.59 70.24 184.175 50.7029C194.578 45.8023 204.867 40.6659 215.036 35.2979Z" fill="#F0770D"></path><path d="M181.484 73.5123C181.842 73.6823 181.694 73.5789 182.018 73.897C182.61 74.4779 182.564 75.6434 182.57 76.4315C182.591 79.2945 182.65 86.115 180.594 88.0631C177.901 90.6153 171.296 93.3578 167.782 95.1434C134.942 111.969 99.8242 123.917 63.5372 130.61C59.0694 131.408 51.5993 133.231 47.4061 133.014C44.91 132.885 43.2888 130.63 41.7288 128.939C40.5915 127.62 39.4935 126.256 38.3988 124.901C37.4251 123.696 36.0841 122.186 36.2574 120.569C38.214 119.743 49.7646 118.547 52.9399 118.031C61.7468 116.606 70.5053 114.895 79.2013 112.901C115.066 104.847 149.206 90.9123 181.484 73.5123Z" fill="#F0770D"></path><path d="M177.733 96.9734C178.136 96.9527 178.377 96.919 178.745 97.1202C179.005 97.2628 178.995 97.2577 179.071 97.5724C179.693 100.168 174.49 110.959 172.986 113.525C171.197 116.578 164.032 119.186 160.797 120.695C141.214 129.952 120.88 137.526 100.013 143.335C94.4578 144.854 74.8288 150.426 70.8545 149.682C67.6101 149.075 64.1037 146.636 61.2267 144.993C59.1377 143.719 56.8213 142.469 54.9521 140.89C54.3092 140.347 53.873 139.936 53.7891 139.086C53.862 139.021 53.9283 138.947 54.008 138.891C55.5701 137.79 61.6873 137.409 63.8506 136.988C73.6236 135.184 83.3269 133.023 92.9421 130.509C121.685 122.881 151.722 111.544 177.733 96.9734Z" fill="#F0770D"></path><path d="M160.881 127.555C160.979 127.561 161.082 127.544 161.176 127.573C161.813 127.772 161.944 127.954 162.153 128.523C161.283 131.371 153.702 137.314 150.988 139.415C133.399 153.028 111.958 158.06 90.0466 155.249C88.9072 155.076 88.0471 154.99 87.2422 154.109L87.2785 153.446L87.9509 153.397L87.5447 153.286C90.9933 152.002 94.7271 151.253 98.2845 150.312C102.984 149.046 107.661 147.699 112.314 146.272C128.904 141.126 145.129 134.873 160.881 127.555Z" fill="#F0770D"></path><path d="M610 75V94H242V75H610Z" fill="#F0770D"></path></svg> 