<?xml version="1.0" encoding="UTF-8"?> <svg xmlns="http://www.w3.org/2000/svg" width="48" height="48" viewBox="0 0 48 48" fill="none"><g clip-path="url(#clip0_551_547)"><path d="M48 24C48 10.7452 37.2548 0 24 0C10.7452 0 0 10.7452 0 24C0 37.2548 10.7452 48 24 48C37.2548 48 48 37.2548 48 24Z" fill="white"></path><path fill-rule="evenodd" clip-rule="evenodd" d="M11.6499 22.5623C18.0923 19.7554 22.3883 17.905 24.5378 17.0109C30.675 14.4582 31.9503 14.0148 32.7815 14.0002C32.9643 13.9969 33.3731 14.0422 33.6379 14.2571C33.8614 14.4385 33.9229 14.6836 33.9524 14.8556C33.9818 15.0276 34.0185 15.4194 33.9893 15.7256C33.6568 19.22 32.2177 27.7001 31.4856 31.6139C31.1758 33.27 30.5658 33.8253 29.9753 33.8796C28.6919 33.9977 27.7174 33.0315 26.4744 32.2167C24.5294 30.9417 23.4305 30.148 21.5425 28.9038C19.3606 27.466 20.7751 26.6757 22.0185 25.3842C22.344 25.0462 27.9985 19.903 28.1079 19.4365C28.1216 19.3781 28.1343 19.1606 28.0051 19.0458C27.8759 18.9309 27.6851 18.9702 27.5475 19.0014C27.3524 19.0457 24.2452 21.0994 18.2258 25.1627C17.3439 25.7683 16.545 26.0634 15.8292 26.0479C15.0402 26.0309 13.5223 25.6018 12.394 25.235C11.01 24.7851 9.91003 24.5473 10.0058 23.7832C10.0557 23.3853 10.6037 22.9783 11.6499 22.5623Z" fill="#424242"></path></g><defs><clipPath id="clip0_551_547"><rect width="48" height="48" fill="white"></rect></clipPath></defs></svg> 