<?xml version="1.0" encoding="UTF-8"?> <svg xmlns="http://www.w3.org/2000/svg" width="48" height="48" viewBox="0 0 48 48" fill="none"><g clip-path="url(#clip0_541_406)"><path d="M48 24C48 10.7452 37.2548 0 24 0C10.7452 0 0 10.7452 0 24C0 37.2548 10.7452 48 24 48C37.2548 48 48 37.2548 48 24Z" fill="white"></path><mask id="mask0_541_406" style="mask-type:luminance" maskUnits="userSpaceOnUse" x="12" y="11" width="24" height="24"><path d="M36 11H12V35H36V11Z" fill="white"></path></mask><g mask="url(#mask0_541_406)"><path d="M12 35L13.6963 28.8403C12.6476 27.0323 12.0974 24.9848 12.1032 22.8916C12.1032 16.3327 17.467 11 24.0516 11C27.2493 11 30.2521 12.2376 32.5043 14.4848C34.7622 16.7319 36.0057 19.7205 36 22.8973C36 29.4563 30.6361 34.789 24.0458 34.789H24.0401C22.0401 34.789 20.0745 34.2871 18.3266 33.3403L12 35ZM18.6304 31.1901L18.9914 31.4068C20.5158 32.308 22.2636 32.7814 24.0458 32.7871H24.0516C29.5243 32.7871 33.9828 28.3555 33.9828 22.903C33.9828 20.2624 32.9513 17.7814 31.0773 15.9106C29.2034 14.0399 26.7049 13.0133 24.0516 13.0133C18.5788 13.0076 14.1203 17.4392 14.1203 22.8916C14.1203 24.7567 14.6418 26.576 15.639 28.1502L15.8739 28.5266L14.8711 32.1711L18.6304 31.1901Z" fill="#424242"></path><path d="M12.4183 34.5836L14.0573 28.635C13.0429 26.8954 12.51 24.9163 12.51 22.8973C12.5157 16.5665 17.6905 11.4163 24.0515 11.4163C27.1404 11.4163 30.0343 12.614 32.212 14.7813C34.3896 16.9486 35.5873 19.8346 35.5873 22.903C35.5873 29.2338 30.4068 34.384 24.0515 34.384H24.0458C22.1146 34.384 20.2177 33.8992 18.5329 32.9867L12.4183 34.5836Z" fill="white"></path><path d="M12 35L13.6963 28.8403C12.6476 27.0323 12.0974 24.9848 12.1032 22.8916C12.1032 16.3327 17.467 11 24.0516 11C27.2493 11 30.2521 12.2376 32.5043 14.4848C34.7622 16.7319 36.0057 19.7205 36 22.8973C36 29.4563 30.6361 34.789 24.0458 34.789H24.0401C22.0401 34.789 20.0745 34.2871 18.3266 33.3403L12 35ZM18.6304 31.1901L18.9914 31.4068C20.5158 32.308 22.2636 32.7814 24.0458 32.7871H24.0516C29.5243 32.7871 33.9828 28.3555 33.9828 22.903C33.9828 20.2624 32.9513 17.7814 31.0773 15.9106C29.2034 14.0399 26.7049 13.0133 24.0516 13.0133C18.5788 13.0076 14.1203 17.4392 14.1203 22.8916C14.1203 24.7567 14.6418 26.576 15.639 28.1502L15.8739 28.5266L14.8711 32.1711L18.6304 31.1901Z" fill="#424242"></path><path fill-rule="evenodd" clip-rule="evenodd" d="M21.0658 17.9182C20.8423 17.422 20.6074 17.4106 20.3953 17.4049C20.2234 17.3992 20.0228 17.3992 19.8223 17.3992C19.6217 17.3992 19.3008 17.4734 19.0257 17.77C18.7506 18.0665 17.9827 18.7852 17.9827 20.2509C17.9827 21.711 19.0544 23.1255 19.2034 23.3251C19.3524 23.5247 21.2721 26.6217 24.3036 27.8137C26.8251 28.8061 27.3409 28.6065 27.8853 28.5551C28.4297 28.5038 29.6503 27.8365 29.9025 27.1407C30.1489 26.4449 30.1489 25.8517 30.0744 25.7262C29.9999 25.6008 29.7993 25.5266 29.5013 25.3783C29.2033 25.23 27.7363 24.5114 27.4612 24.4087C27.1862 24.3118 26.9856 24.2604 26.7907 24.557C26.5902 24.8536 26.0171 25.5209 25.8452 25.7205C25.6733 25.9201 25.4956 25.943 25.1976 25.7947C24.8996 25.6464 23.9369 25.3327 22.7965 24.3175C21.9082 23.5304 21.3065 22.5551 21.1346 22.2585C20.9627 21.962 21.1174 21.8023 21.2664 21.654C21.3982 21.5228 21.5644 21.3061 21.7134 21.135C21.8624 20.9639 21.914 20.8384 22.0114 20.6388C22.1088 20.4392 22.063 20.2681 21.9885 20.1198C21.914 19.9772 21.3294 18.5057 21.0658 17.9182Z" fill="#424242"></path></g></g><defs><clipPath id="clip0_541_406"><rect width="48" height="48" fill="white"></rect></clipPath></defs></svg> 